<svg width="20" height="22" viewBox="0 0 20 22" fill="none" xmlns="http://www.w3.org/2000/svg">
<path fill-rule="evenodd" clip-rule="evenodd" d="M10.9298 4.56994C11.2043 5.721 12.0155 6.66987 13.1098 7.11994C16.0052 8.48542 17.6709 11.5799 17.2164 14.7487C16.7618 17.9174 14.2932 20.4188 11.1308 20.9153C7.96837 21.4117 4.85208 19.787 3.44842 16.91C2.04477 14.033 2.6822 10.5769 5.01984 8.38994L6.37984 9.65994L7.01984 10.2999L7.46984 9.84994L7.74984 11.3799L6.20984 11.1199L6.65984 10.6699L6.01984 10.0299C5.12363 10.9632 4.60676 12.1966 4.56984 13.4899H5.47984V12.7599L6.73984 13.6699L5.47984 14.5799V13.8499L4.56984 13.8499C4.65035 15.1305 5.16133 16.3463 6.01984 17.2999L6.64984 16.6499L6.19984 16.1999L7.73984 15.9399L7.46984 17.4799L7.01984 17.0299L6.38984 17.6699C7.32057 18.5639 8.54995 19.0806 9.83984 19.1199V18.2099H9.10984L10.0198 16.9399L10.9298 18.2099H10.1998V19.1199C11.4804 19.0394 12.6962 18.5284 13.6498 17.6699L13.0098 17.0299L12.5598 17.4799L12.2998 15.9399L13.8298 16.2099L13.3798 16.6599L14.0198 17.2999C14.916 16.3667 15.4329 15.1333 15.4698 13.8399H14.5598V14.5699L13.2998 13.6599L14.5598 12.7499V13.4799L15.4698 13.4799C15.3893 12.1993 14.8783 10.9836 14.0198 10.0299L13.3998 10.6799L13.8498 11.1299L12.3098 11.3899L12.5698 9.84994L13.0198 10.2999L13.6598 9.66994C13.0478 9.19057 12.3754 8.79383 11.6598 8.48994C10.8189 8.02386 10.1259 7.33085 9.65984 6.48994C9.35253 5.8957 9.16562 5.24661 9.10984 4.57994L7.28984 5.48994L10.0198 0.939941L12.7498 5.47994C12.7498 5.47994 11.0198 4.65994 10.9298 4.56994ZM10.0198 16.1399C11.4005 16.1399 12.5198 15.0207 12.5198 13.6399C12.5198 12.2592 11.4005 11.1399 10.0198 11.1399C8.63913 11.1399 7.51984 12.2592 7.51984 13.6399C7.51984 15.0207 8.63913 16.1399 10.0198 16.1399Z" fill="black"/>
</svg>
