<svg width="20" height="20" viewBox="0 0 20 20" fill="none" xmlns="http://www.w3.org/2000/svg">
<circle cx="10" cy="10" r="10" fill="#202122"/>
<path fill-rule="evenodd" clip-rule="evenodd" d="M10.6262 6.577H12.2604C12.3224 6.69306 12.3224 6.83237 12.2604 6.94843C11.689 7.03986 11.4833 7.46843 11.2262 7.99415L10.4262 9.56557L11.769 12.5427H11.809L13.8204 7.91415C14.0719 7.30272 14.049 7.00557 13.369 6.94272C13.306 6.82692 13.306 6.68708 13.369 6.57129H15.3404C15.4034 6.68708 15.4034 6.82692 15.3404 6.94272C14.649 7.03415 14.529 7.46272 14.3062 7.98843L11.809 13.7484C11.7347 13.9199 11.6719 14.0056 11.5576 14.0056C11.4433 14.0056 11.369 13.9141 11.3176 13.7484L9.90044 10.4741L8.34615 13.7484C8.2833 13.9199 8.20901 14.0056 8.09473 14.0056C7.98044 14.0056 7.91758 13.9141 7.85473 13.7484L5.56901 7.98272C5.2433 7.18272 5.22615 7.01129 4.62615 6.95415C4.55747 6.83884 4.55315 6.69625 4.61472 6.577H6.84901C6.91201 6.6928 6.91201 6.83264 6.84901 6.94843C6.18615 7.02272 6.15758 7.20557 6.42615 7.85129L8.37472 12.5313H8.4033L9.57472 10.0056L8.70615 7.977C8.35758 7.177 8.26044 7.017 7.82615 6.95415C7.76418 6.83809 7.76418 6.69877 7.82615 6.58272H9.7233C9.7863 6.69851 9.7863 6.83835 9.7233 6.95415C9.30044 7.02272 9.3233 7.21129 9.61472 7.857L10.1119 8.99986L10.1576 9.05129L10.729 7.90843C11.0547 7.257 11.0947 7.00557 10.6433 6.937C10.5799 6.82679 10.5735 6.69275 10.6262 6.577Z" fill="#F8F9FA"/>
</svg>
